<?xml version="1.0" encoding="utf-8"?>
<svg version="1.1" xmlns:xlink="http://www.w3.org/1999/xlink" width="109px" height="106px" xmlns="http://www.w3.org/2000/svg">
  <g transform="matrix(1 0 0 1 -87 -289 )">
    <path d="M 87 289  L 196 289  L 196 395  L 87 395  L 87 289  " fill-rule="nonzero" fill="#cccccc" stroke="none" />
    <path d="M 94 296  L 189 296  L 189 388  L 94 388  L 94 296  " fill-rule="nonzero" fill="#ffffff" stroke="none" />
    <path d="M 151.63 320.79999999999995  C 147.178 320.79999999999995  143.68 317.30199999999996  143.68 312.84999999999997  C 143.68 308.39799999999997  147.178 304.9  151.63 304.9  C 156.082 304.9  159.58 308.39799999999997  159.58 312.84999999999997  C 159.58 317.30199999999996  156.082 320.79999999999995  151.63 320.79999999999995  " fill-rule="nonzero" fill="#cccccc" stroke="none" />
    <path d="M 97 386  L 97 338.15  L 119.5 316.4  L 151 335.23669724770645  L 169 329.45  L 187 335.23669724770645  L 187 386  L 97 386  " fill-rule="nonzero" fill="#169bd5" stroke="none" />
  </g>
</svg>