<?xml version="1.0" encoding="utf-8"?>
<svg version="1.1" xmlns:xlink="http://www.w3.org/1999/xlink" width="91px" height="65px" xmlns="http://www.w3.org/2000/svg">
  <g transform="matrix(1 0 0 1 -129 -340 )">
    <path d="M 84.017578125 58.65234375  C 84.33919270833334 58.35996685606061  84.5 58.01373106060606  84 57.61363636363636  L 84 22.15909090909091  C 83.41666666666669 23.267045454545453  82.24869791666669 24.282670454545453  80.99609375 25.20596590909091  C 71.92317708333334 31.545928030303024  64.71223958333334 36.74715909090909  59.36328125 40.80965909090909  C 57.63671875 42.133049242424235  56.231770833333336 43.1640625  55.1484375 43.90269886363636  C 54.06510416666667 44.64133522727273  52.60091145833334 45.38766571969697  50.755859375 46.14169034090909  C 48.91080729166667 46.89571496212121  47.17578125 47.27272727272727  45.55078125 47.27272727272727  L 45.5 47.27272727272727  L 45.44921875 47.27272727272727  C 43.82421875 47.27272727272727  42.089192708333336 46.89571496212121  40.244140625 46.14169034090909  C 38.39908854166667 45.38766571969697  36.934895833333336 44.64133522727273  35.8515625 43.90269886363636  C 34.76822916666667 43.1640625  33.36328125 42.133049242424235  31.63671875 40.80965909090909  C 26.28776041666667 36.74715909090909  19.07682291666667 31.545928030303024  10.00390625 25.20596590909091  C 8.751302083333334 24.282670454545453  7.583333333333334 23.267045454545453  7 22.15909090909091  L 7 57.61363636363636  C 6.5 58.01373106060606  6.660807291666668 58.35996685606061  6.982421875 58.65234375  C 7.304036458333333 58.94472064393939  7.684895833333334 59.090909090909086  8.125 59  L 82.875 59  C 83.31510416666667 59.090909090909086  83.69596354166667 58.94472064393939  84.017578125 58.65234375  Z M 82.138671875 15.165127840909088  C 83.712890625 12.933830492424235  84.5 10.910274621212121  84.5 9.094460227272727  L 84.5 8.586647727272727  L 84.5 7.9634232954545485  C 84.5 7.9634232954545485  84.49153645833334 7.763375946969687  84.474609375 7.36328125  C 84.45768229166667 6.963186553030299  84.40690104166667 6.770833333333323  84.322265625 6.786221590909089  C 84.23763020833334 6.801609848484847  84.14453125 6.663115530303025  84.04296875 6.370738636363637  C 83.94140625 6.078361742424235  83.7890625 5.962949810606057  83.5859375 6.024502840909089  C 83.3828125 6.086055871212121  83.14583333333334 6.047585227272726  82.875 6  L 8.125 6  C 7.684895833333334 5.909090909090911  7.304036458333333 6.0552793560605975  6.982421875 6.34765625  C 6.660807291666668 6.640033143939387  6.5 6.986268939393936  6.5 7.386363636363637  C 6.5 12.556818181818185  8.98828125 16.927083333333325  13.96484375 20.49715909090909  C 20.49869791666667 25.175189393939387  27.286458333333336 30.053267045454547  34.328125 35.13139204545455  C 34.53125 35.28527462121211  35.12369791666667 35.73922821969697  36.10546875 36.49325284090909  C 37.087239583333336 37.24727746212121  37.86588541666667 37.82433712121211  38.44140625 38.22443181818182  C 39.01692708333334 38.62452651515151  39.77018229166667 39.109256628787875  40.701171875 39.67862215909091  C 41.632161458333336 40.24798768939394  42.48697916666667 40.67116477272727  43.265625 40.94815340909091  C 44.044270833333336 41.22514204545455  44.77213541666667 41.36363636363636  45.44921875 41.36363636363636  L 45.5 41.36363636363636  L 45.55078125 41.36363636363636  C 46.22786458333334 41.36363636363636  46.95572916666667 41.22514204545455  47.734375 40.94815340909091  C 48.51302083333334 40.67116477272727  49.367838541666664 40.24798768939394  50.298828125 39.67862215909091  C 51.229817708333336 39.109256628787875  51.983072916666664 38.62452651515151  52.55859375 38.22443181818182  C 53.13411458333334 37.82433712121211  53.91276041666667 37.24727746212121  54.89453124999999 36.49325284090909  C 55.876302083333336 35.73922821969697  56.46875 35.28527462121211  56.67187499999999 35.13139204545455  C 63.713541666666664 30.053267045454547  70.50130208333334 25.175189393939387  77.03515625 20.49715909090909  C 78.86328125 19.173768939393938  80.564453125 17.396425189393938  82.138671875 15.165127840909088  Z M 88.61328125 2.169744318181815  C 90.20442708333334 3.616240530303025  91 5.355113636363637  91 7.386363636363637  L 91 57.61363636363636  C 91 59.64488636363636  90.20442708333334 61.383759469696976  88.61328125 62.83025568181819  C 87.02213541666669 64.27675189393939  85.10937500000001 65  82.875 65  L 8.125 65  C 5.890625000000001 65  3.977864583333334 64.27675189393939  2.38671875 62.83025568181819  C 0.7955729166666666 61.383759469696976  0 59.64488636363636  0 57.61363636363636  L 0 7.386363636363637  C 0 5.355113636363637  0.7955729166666666 3.616240530303025  2.38671875 2.169744318181815  C 3.977864583333334 0.7232481060605978  5.890625000000001 0  8.125 0  L 82.875 0  C 85.10937500000001 0  87.02213541666669 0.7232481060605978  88.61328125 2.169744318181815  Z " fill-rule="nonzero" fill="#ffffff" stroke="none" transform="matrix(1 0 0 1 129 340 )" />
  </g>
</svg>