<?xml version="1.0" encoding="utf-8"?>
<svg version="1.1" xmlns:xlink="http://www.w3.org/1999/xlink" width="83px" height="85px" xmlns="http://www.w3.org/2000/svg">
  <g transform="matrix(1 0 0 1 -1091 -330 )">
    <path d="M 20.6689453125 5.840560373582389  C 27.027235243055557 1.9468534578607932  33.97092013888889 0  41.5 0  C 49.029079861111114 0  55.97276475694445 1.9468534578607932  62.3310546875 5.840560373582389  C 68.68934461805556 9.734267289303975  73.72374131944446 15.017233711363128  77.43424479166667 21.689459639759836  C 81.14474826388887 28.361685568156545  83 35.648209917722916  83 43.54903268845898  C 83 53.03758060929508  80.36121961805554 61.571603291082944  75.08365885416667 69.15110073382255  C 69.80609809027779 76.73059817656215  62.98849826388889 81.97576161885702  54.630859375 84.88659106070715  C 53.65820312500001 85.07560595952857  52.93771701388889 84.94329553035357  52.46940104166667 84.48965977318213  C 52.00108506944444 84.03602401601067  51.76692708333333 83.46897931954636  51.76692708333333 82.7885256837892  C 51.76692708333333 82.67511674449632  51.77593315972223 81.22915276851235  51.7939453125 78.45063375583723  C 51.811957465277786 75.67211474316211  51.82096354166667 73.12986435401379  51.82096354166667 70.82388258839227  C 51.82096354166667 67.15699355125639  50.88433159722223 64.47298198799199  49.01106770833333 62.77184789859906  C 51.064453125 62.54503002001334  52.91069878472223 62.204803202134755  54.5498046875 61.751167444963315  C 56.188910590277786 61.29753168779186  57.88205295138889 60.56037358238826  59.62923177083333 59.5396931287525  C 61.376410590277786 58.51901267511674  62.835394965277786 57.26206359795419  64.00618489583333 55.76884589726484  C 65.1769748263889 54.27562819657548  66.13161892361113 52.29097175895041  66.8701171875 49.81487658438959  C 67.6086154513889 47.338781409828776  67.97786458333333 44.49410718256615  67.97786458333333 41.28085390260174  C 67.97786458333333 36.782299310651545  66.5549045138889 32.88859239492996  63.708984375 29.59973315543696  C 65.04188368055556 26.159661996886815  64.89778645833333 22.303758060929507  63.27669270833333 18.032021347565042  C 62.268012152777786 17.69179452968646  60.809027777777786 17.899710918390028  58.89973958333333 18.655770513675787  C 56.99045138888889 19.411830108961524  55.33333333333333 20.243495663775853  53.92838541666667 21.150767178118745  L 51.875 22.51167444963309  C 48.52473958333334 21.528796975761615  45.06640625000001 21.037358238825885  41.5 21.037358238825885  C 37.93359375 21.037358238825885  34.475260416666664 21.528796975761615  31.125 22.51167444963309  C 30.548611111111114 22.095841672225923  29.78309461805556 21.58550144540804  28.828450520833336 20.980653769179447  C 27.873806423611114 20.37580609295085  26.36979166666667 19.64809873248833  24.31640625 18.797531687791864  C 22.263020833333336 17.9469646430954  20.731987847222225 17.69179452968646  19.723307291666668 18.032021347565042  C 18.102213541666668 22.303758060929507  17.958116319444446 26.159661996886815  19.291015625 29.59973315543696  C 16.445095486111114 32.88859239492996  15.022135416666668 36.782299310651545  15.022135416666668 41.28085390260174  C 15.022135416666668 44.49410718256615  15.391384548611112 47.3293306648877  16.1298828125 49.78652434956638  C 16.86838107638889 52.24371803424505  17.814019097222225 54.22837447187013  18.966796875 55.74049366244163  C 20.119574652777782 57.25261285301311  21.569552951388893 58.51901267511674  23.316731770833336 59.5396931287525  C 25.06391059027778 60.56037358238826  26.757052951388893 61.29753168779186  28.396158854166664 61.751167444963315  C 30.035264756944446 62.204803202134755  31.881510416666664 62.54503002001334  33.934895833333336 62.77184789859906  C 32.529947916666664 64.13275517011341  31.64735243055556 66.07960862797421  31.287109375 68.61240827218145  C 30.530598958333336 68.99043806982434  29.720052083333336 69.27396041805649  28.85546875 69.46297531687792  C 27.990885416666664 69.65199021569936  26.964192708333336 69.74649766511007  25.775390625 69.74649766511007  C 24.58658854166667 69.74649766511007  23.406792534722225 69.34011563264399  22.236002604166664 68.5273515677118  C 21.065212673611114 67.71458750277964  20.065538194444446 66.53324438514565  19.236979166666668 64.98332221480987  C 18.552517361111114 63.773626862352664  17.67892795138889 62.79074938848121  16.6162109375 62.03468979319547  C 15.553493923611112 61.278630197909706  14.661892361111112 60.82499444073826  13.94140625 60.67378252168112  L 12.860677083333332 60.503669112741825  C 12.104166666666668 60.503669112741825  11.58181423611111 60.58872581721147  11.293619791666668 60.75883922615077  C 11.005425347222223 60.928952635090056  10.915364583333336 61.14631976873471  11.0234375 61.41094062708472  C 11.131510416666668 61.67556148543473  11.293619791666668 61.94018234378474  11.509765625 62.204803202134755  C 11.725911458333336 62.46942406048476  11.960069444444446 62.69624193907048  12.212239583333332 62.88525683789193  L 12.590494791666668 63.168779186124084  C 13.38302951388889 63.546808983766944  14.166558159722223 64.26506559928842  14.941080729166668 65.32354903268846  C 15.715603298611112 66.38203246608849  16.282986111111114 67.34600845007782  16.643229166666668 68.21547698465643  L 17.18359375 69.51967978652435  C 17.651909722222225 70.95619301756726  18.444444444444446 72.11863464531909  19.561197916666668 73.00700466977985  C 20.677951388888893 73.89537469424062  21.884765625000004 74.46241939070492  23.181640625 74.70813875917278  C 24.478515625000004 74.95385812764064  25.73036024305556 75.08616855681565  26.937174479166664 75.1050700466978  C 28.14398871527778 75.12397153657994  29.143663194444446 75.05781632199243  29.936197916666664 74.90660440293529  L 31.179036458333336 74.67978652434957  C 31.179036458333336 76.11629975539248  31.188042534722225 77.7890816099622  31.2060546875 79.6981320880587  C 31.22406684027778 81.60718256615522  31.233072916666664 82.63731376473204  31.233072916666664 82.7885256837892  C 31.233072916666664 83.46897931954636  30.99891493055556 84.03602401601067  30.530598958333336 84.48965977318213  C 30.062282986111114 84.94329553035357  29.341796875 85.07560595952857  28.369140625 84.88659106070715  C 20.011501736111114 81.97576161885702  13.193901909722223 76.73059817656215  7.916341145833334 69.15110073382255  C 2.638780381944444 61.571603291082944  0 53.03758060929508  0 43.54903268845898  C 0 35.648209917722916  1.855251736111111 28.361685568156545  5.565755208333334 21.689459639759836  C 9.276258680555557 15.017233711363128  14.310655381944446 9.734267289303975  20.6689453125 5.840560373582389  Z M 15.022135416666668 62.6584389593062  C 15.346354166666668 62.88525683789193  15.58051215277778 62.84745385812764  15.724609375 62.54503002001334  C 15.832682291666668 62.280409161663336  15.706597222222223 62.0535912830776  15.346354166666668 61.864576384256175  C 14.986111111111112 61.751167444963315  14.751953125 61.78897042472759  14.643880208333332 61.977985323549035  C 14.535807291666668 62.242606181899035  14.661892361111112 62.46942406048476  15.022135416666668 62.6584389593062  Z M 16.53515625 64.3028685790527  C 16.895399305555557 64.68089837669557  17.18359375 64.737602846342  17.399739583333332 64.47298198799199  C 17.651909722222225 64.28396708917055  17.615885416666668 63.98154325105626  17.291666666666668 63.5657104736491  C 16.931423611111114 63.22548365577051  16.643229166666668 63.168779186124084  16.427083333333332 63.395597064709804  C 16.174913194444446 63.58461196353124  16.2109375 63.88703580164554  16.53515625 64.3028685790527  Z M 18.102213541666668 66.62775183455636  C 18.426432291666668 67.11919057149211  18.73263888888889 67.25150100066712  19.020833333333332 67.02468312208138  C 19.345052083333332 66.76006226373137  19.345052083333332 66.40093395597064  19.020833333333332 65.9472981987992  C 18.73263888888889 65.45585946186345  18.426432291666668 65.3424505225706  18.102213541666668 65.60707138092062  C 17.777994791666668 65.79608627974206  17.777994791666668 66.13631309762063  18.102213541666668 66.62775183455636  Z M 20.209635416666668 69.2361574382922  C 20.641927083333332 69.68979319546365  21.002170138888893 69.74649766511007  21.290364583333336 69.4062708472315  C 21.57855902777778 69.10384700911719  21.50651041666667 68.74471870135646  21.07421875 68.3288859239493  C 20.641927083333332 67.87525016677785  20.281684027777782 67.81854569713143  19.993489583333332 68.15877251501  C 19.669270833333332 68.46119635312431  19.741319444444446 68.82032466088502  20.209635416666668 69.2361574382922  Z M 23.34375 71.16410940627084  C 23.884114583333336 71.39092728485657  24.226345486111114 71.2775183455637  24.370442708333336 70.82388258839227  C 24.478515625 70.4080498109851  24.244357638888893 70.1056259728708  23.66796875 69.91661107404937  C 23.12760416666667 69.76539915499221  22.785373263888893 69.89770958416723  22.641276041666664 70.31354236157438  C 22.497178819444446 70.72937513898154  22.731336805555557 71.01289748721369  23.34375 71.16410940627084  Z M 26.91015625 71.73115410273515  C 27.486545138888893 71.73115410273515  27.774739583333336 71.52323771403157  27.774739583333336 71.10740493662442  C 27.774739583333336 70.61596619968869  27.468532986111114 70.4080498109851  26.856119791666664 70.48365577051368  C 26.27973090277778 70.48365577051368  25.991536458333336 70.69157215921726  25.991536458333336 71.10740493662442  C 25.991536458333336 71.59884367356015  26.297743055555557 71.80676006226372  26.91015625 71.73115410273515  Z M 30.15234375 71.33422281521014  C 30.728732638888893 71.183010896153  30.98090277777778 70.918390037803  30.908854166666664 70.54036024016011  C 30.83680555555556 70.12452746275295  30.51258680555556 69.95441405381365  29.936197916666664 70.03002001334222  C 29.35980902777778 70.14342895263509  29.107638888888893 70.42695130086724  29.1796875 70.88058705803869  C 29.251736111111114 71.33422281521014  29.575954861111114 71.4854347342673  30.15234375 71.33422281521014  Z " fill-rule="nonzero" fill="#000000" stroke="none" transform="matrix(1 0 0 1 1091 330 )" />
  </g>
</svg>