<?xml version="1.0" encoding="utf-8"?>
<svg version="1.1" xmlns:xlink="http://www.w3.org/1999/xlink" width="91px" height="75px" xmlns="http://www.w3.org/2000/svg">
  <g transform="matrix(1 0 0 1 -442 -335 )">
    <path d="M 56.265625 56.29185267857143  C 58.432291666666664 57.29631696428571  59.803385416666664 56.766183035714285  60.37890625 54.701450892857146  L 67.84375 25.697544642857146  C 68.1484375 24.469866071428562  67.970703125 23.590959821428562  67.310546875 23.060825892857146  C 66.650390625 22.53069196428571  65.77864583333334 22.43303571428572  64.6953125 22.767857142857146  L 20.8203125 36.704799107142854  C 19.838541666666668 37.01171874999999  19.169921875 37.36049107142857  18.814453125 37.75111607142857  C 18.458984375 38.14174107142857  18.416666666666668 38.51143973214286  18.6875 38.86021205357143  C 18.958333333333336 39.20898437499999  19.5 39.481026785714285  20.3125 39.67633928571429  L 31.535156249999996 42.564174107142854  L 57.5859375 29.045758928571427  C 58.296875 28.655133928571423  58.83854166666667 28.571428571428562  59.21093750000001 28.794642857142854  C 59.447916666666664 28.934151785714285  59.38020833333334 29.143415178571423  59.0078125 29.42243303571428  L 37.93359375 45.1171875  L 37.12109375 54.65959821428571  C 37.899739583333336 54.65959821428571  38.661458333333336 54.35267857142857  39.40625 53.73883928571429  L 44.890625 49.38616071428571  L 56.265625 56.29185267857143  Z M 87.39453125 22.935267857142854  C 89.79817708333334 27.566964285714278  91 32.421875  91 37.5  C 91 42.57812499999999  89.79817708333334 47.433035714285715  87.39453125 52.064732142857146  C 84.99088541666669 56.69642857142857  81.75781250000001 60.68638392857143  77.6953125 64.03459821428571  C 73.6328125 67.3828125  68.79166666666667 70.04743303571429  63.171875 72.02845982142857  C 57.55208333333334 74.00948660714286  51.661458333333336 75  45.5 75  C 39.33854166666667 75  33.44791666666667 74.00948660714286  27.828125000000004 72.02845982142857  C 22.208333333333336 70.04743303571429  17.3671875 67.3828125  13.3046875 64.03459821428571  C 9.2421875 60.68638392857143  6.009114583333333 56.69642857142857  3.60546875 52.064732142857146  C 1.2018229166666665 47.433035714285715  0 42.57812499999999  0 37.5  C 0 32.421875  1.2018229166666665 27.566964285714278  3.60546875 22.935267857142854  C 6.009114583333333 18.303571428571423  9.2421875 14.313616071428573  13.3046875 10.965401785714283  C 17.3671875 7.6171875  22.208333333333336 4.952566964285713  27.828125000000004 2.9715401785714275  C 33.44791666666667 0.9905133928571425  39.33854166666667 0  45.5 0  C 51.661458333333336 0  57.55208333333334 0.9905133928571425  63.171875 2.9715401785714275  C 68.79166666666667 4.952566964285713  73.6328125 7.6171875  77.6953125 10.965401785714283  C 81.75781250000001 14.313616071428573  84.99088541666669 18.303571428571423  87.39453125 22.935267857142854  Z " fill-rule="nonzero" fill="#ffffff" stroke="none" transform="matrix(1 0 0 1 442 335 )" />
  </g>
</svg>