<?xml version="1.0" encoding="utf-8"?>
<svg version="1.1" xmlns:xlink="http://www.w3.org/1999/xlink" width="85px" height="65px" xmlns="http://www.w3.org/2000/svg">
  <g transform="matrix(1 0 0 1 -768 -340 )">
    <path d="M 84.60176991150442 4.147675478577937  L 84.86725663716814 4.740200546946217  C 85.54572271386432 7.268307505317532  83.33333333333334 13.075053175326644  78.23008849557522 22.160437556973562  C 77.52212389380531 23.424491036159218  76.56342182890856 25.10331206320267  75.35398230088495 27.196900638103923  C 74.1740412979351 29.21148587055606  73.36283185840709 30.633546034639924  72.92035398230088 31.463081130355516  C 72.4778761061947 32.292616226071104  72.02802359882007 33.27028258887876  71.570796460177 34.396080218778486  C 71.11356932153393 35.521877848678216  70.93657817109144 36.3514129443938  71.03982300884955 36.88468550592525  C 71.14306784660768 37.417958067456695  71.33480825958704 38.09936189608022  71.61504424778761 38.9288969917958  C 71.89528023598821 39.75843208751139  72.37463126843657 40.60771801883926  73.05309734513274 41.4767547857794  C 73.73156342182891 42.345791552719525  74.57227138643069 43.392585840170156  75.57522123893806 44.61713764813126  C 75.69321533923303 44.69614099058037  75.76696165191741 44.775144333029466  75.79646017699115 44.85414767547857  C 79.95575221238938 50.02886660589486  82.77286135693215 54.39380127620784  84.24778761061947 57.9489516864175  C 84.33628318584071 58.146460042540255  84.43215339233038 58.39334548769371  84.53539823008849 58.68960802187785  C 84.63864306784662 58.98587055606199  84.74188790560471 59.509267699787294  84.84513274336283 60.25979945305378  C 84.94837758112095 61.010331206320274  84.94100294985252 61.68185961713765  84.82300884955751 62.27438468550593  C 84.70501474926255 62.8669097538742  84.33628318584071 63.4100577332118  83.71681415929204 63.903828623518685  C 83.09734513274336 64.39759951382558  82.22713864306785 64.64448495897904  81.10619469026548 64.64448495897904  L 69.77876106194691 64.88149498632635  C 69.070796460177 65.0790033424491  68.2448377581121 64.98024916438773  67.30088495575221 64.58523245214221  C 66.35693215339234 64.19021573989669  65.58997050147494 63.755697356426616  65 63.281677301731996  L 64.11504424778761 62.570647219690066  C 63.23008849557522 61.741112123974474  62.197640117994105 60.477058644788826  61.01769911504425 58.778486782133086  C 59.8377581120944 57.07991491947736  58.82743362831859 55.54922515952598  57.98672566371681 54.18641750227895  C 57.14601769911505 52.8236098450319  56.24631268436578 51.678061379519896  55.28761061946903 50.749772105742935  C 54.32890855457228 49.821482831965966  53.49557522123894 49.51534487997568  52.78761061946903 49.83135824977211  C 52.69911504424778 49.870859920996665  52.58112094395281 49.939987845639614  52.43362831858407 50.038742023701005  C 52.28613569321534 50.137496201762374  52.0353982300885 50.42388331814038  51.68141592920354 50.897903372835  C 51.32743362831858 51.37192342752963  51.01032448377581 51.95457307809176  50.730088495575224 52.64585232452143  C 50.44985250737463 53.33713157095109  50.19911504424778 54.364175022789425  49.97787610619469 55.726982680036464  C 49.756637168141594 57.089790337283496  49.66076696165192 58.620480097234875  49.690265486725664 60.31905195989061  C 49.690265486725664 60.91157702825889  49.638643067846616 61.45472500759648  49.5353982300885 61.94849589790337  C 49.432153392330385 62.44226678821027  49.32153392330383 62.807657247037376  49.203539823008846 63.044667274384686  L 49.02654867256638 63.34092980856882  C 48.49557522123894 64.09146156183532  47.71386430678467 64.52597994530538  46.68141592920354 64.64448495897904  L 41.5929203539823 64.64448495897904  C 39.498525073746315 64.80249164387725  37.34513274336283 64.4766028562747  35.13274336283186 63.66681859617138  C 32.92035398230088 62.85703433606806  30.980825958702066 61.810240048617445  29.314159292035395 60.526435733819504  C 27.647492625368734 59.24263141902157  26.128318584070794 57.93907626861136  24.75663716814159 56.615770282588876  C 23.384955752212388 55.29246429656639  22.345132743362832 54.15679124886053  21.63716814159292 53.20875113947129  L 20.530973451327434 51.78669097538742  C 20.235988200589972 51.3916742631419  19.83038348082596 50.79914919477362  19.3141592920354 50.00911577028259  C 18.79793510324484 49.21908234579155  17.74336283185841 47.42175630507444  16.15044247787611 44.61713764813126  C 14.557522123893806 41.81251899118808  12.994100294985252 38.830142813734426  11.460176991150444 35.670009115770284  C 9.926253687315635 32.509875417806136  8.119469026548673 28.34244910361592  6.039823008849558 23.167730173199637  C 3.9601769911504423 17.99301124278335  2.0353982300884956 12.620783956244304  0.2654867256637168 7.051048313582497  C 0.08849557522123894 6.419021573989663  0 5.885749012458215  0 5.451230628988152  C 0 5.016712245518075  0.04424778761061947 4.700698875721662  0.1327433628318584 4.503190519598904  L 0.30973451327433627 4.147675478577937  C 0.7522123893805309 3.397143725311454  1.592920353982301 3.021877848678216  2.831858407079646 3.021877848678216  L 14.955752212389381 2.9033728350045602  C 15.309734513274336 2.9823761774536544  15.64896755162242 3.1107566089334524  15.97345132743363 3.28851412944394  C 16.29793510324484 3.4662716499544204  16.533923303834808 3.634153752658759  16.681415929203542 3.7921604375569764  L 16.902654867256636 3.9699179580674566  C 17.374631268436577 4.404436341537519  17.728613569321535 5.036463081130353  17.964601769911503 5.865998176845944  C 18.554572271386434 7.841081738073527  19.233038348082594 9.885293223944084  20 11.998632634457614  C 20.766961651917406 14.111972044971122  21.371681415929206 15.721665147371615  21.8141592920354 16.827711941659075  L 22.52212389380531 18.546034639927075  C 23.377581120943955 20.916134913400178  24.20353982300885 22.970221817076876  25 24.708295350957155  C 25.79646017699115 26.446368884837433  26.511799410029504 27.79930112427833  27.146017699115045 28.767092069279855  C 27.78023598820059 29.734883014281365  28.39233038348083 30.49529018535399  28.98230088495575 31.048313582497723  C 29.572271386430682 31.60133697964144  30.07374631268437 31.877848678213308  30.486725663716815 31.877848678213308  C 30.899705014749262 31.877848678213308  31.29793510324484 31.77909450015192  31.68141592920354 31.58158614402917  C 31.74041297935103 31.542084472804618  31.814159292035395 31.443330294743237  31.902654867256636 31.285323609845037  C 31.991150442477874 31.12731692494682  32.16814159292035 30.692798541476755  32.43362831858407 29.98176845943482  C 32.69911504424778 29.27073837739289  32.89823008849557 28.34244910361592  33.030973451327434 27.196900638103923  C 33.163716814159294 26.05135217259192  33.30383480825959 24.451534487997566  33.451327433628315 22.397447584320876  C 33.59882005899705 20.343360680644178  33.59882005899705 17.87450622910969  33.451327433628315 14.99088422971741  C 33.39233038348083 13.410817380735335  33.25958702064897 11.9690063810392  33.05309734513274 10.665451230628985  C 32.84660766961652 9.361896080218777  32.6401179941003 8.453357642054083  32.43362831858407 7.939835916134913  L 32.16814159292035 7.228805834092977  C 31.430678466076696 5.885749012458215  30.17699115044248 5.0364630811303455  28.4070796460177 4.680948040109392  C 28.023598820058996 4.601944697660284  28.09734513274336 4.127924642965652  28.628318584070794 3.2588878760255207  C 29.10029498525074 2.5083561227590376  29.66076696165192 1.915831054390758  30.309734513274336 1.4813126709206959  C 31.873156342182895 0.4542692190823394  35.39823008849557 -0.019750835612284412  40.88495575221239 0.05925250683682437  C 43.30383480825959 0.09875417806137154  45.29498525073747 0.35551504102096787  46.85840707964602 0.8295350957155845  C 47.448377581120944 1.027043451838342  47.942477876106196 1.293679732604066  48.340707964601776 1.629443938012764  C 48.73893805309734 1.9652081434214401  49.04129793510325 2.439228198116064  49.24778761061947 3.0515041020966285  C 49.4542772861357 3.663780006077178  49.60914454277287 4.295806745670012  49.71238938053098 4.947584320875117  C 49.8156342182891 5.599361896080214  49.86725663716814 6.498024916438764  49.86725663716814 7.643573381950777  C 49.86725663716814 8.789121847462775  49.85250737463127 9.875417806137948  49.82300884955752 10.902461257976297  C 49.79351032448378 11.929504709814639  49.756637168141594 13.321938620480092  49.71238938053098 15.079762989972654  C 49.66814159292036 16.837587359465207  49.64601769911505 18.467031297477966  49.64601769911505 19.96809480401094  C 49.64601769911505 20.402613187481002  49.63126843657818 21.232148283196594  49.60176991150443 22.456700091157707  C 49.57227138643068 23.681251899118806  49.564896755162245 24.629292008508052  49.57964601769911 25.300820419325436  C 49.59439528023599 25.97234883014281  49.64601769911505 26.77225767243998  49.73451327433629 27.700546946216953  C 49.82300884955752 28.62883621999392  49.99262536873157 29.399118808872682  50.243362831858406 30.01139471285324  C 50.49410029498525 30.62367061683378  50.825958702064895 31.107566089334547  51.23893805309734 31.463081130355516  C 51.47492625368732 31.542084472804618  51.72566371681416 31.62108781525372  51.991150442477874 31.70009115770283  C 52.25663716814159 31.77909450015192  52.6401179941003 31.561835308416896  53.141592920353986 31.048313582497723  C 53.64306784660768 30.534791856578547  54.20353982300885 29.85338802795502  54.82300884955752 29.004102096627168  C 55.44247787610619 28.154816165299298  56.20943952802361 26.831510179276812  57.123893805309734 25.03418413855971  C 58.038348082595874 23.236858097842603  59.04129793510325 21.113643269522935  60.13274336283185 18.66453965360073  C 61.902654867256636 14.556365846247333  63.48082595870206 10.112427833485253  64.86725663716814 5.332725615314496  C 64.98525073746313 4.937708903068974  65.13274336283186 4.592069279854148  65.30973451327434 4.295806745670012  C 65.48672566371681 3.9995442114858686  65.64896755162242 3.7921604375569764  65.79646017699115 3.67365542388332  L 65.97345132743364 3.495897903372833  L 66.19469026548673 3.3477666362807645  C 66.19469026548673 3.3477666362807645  66.38643067846608 3.28851412944394  66.76991150442477 3.1700091157702843  C 67.15339233038348 3.0515041020966285  67.44837758112095 3.041628684290486  67.65486725663717 3.140382862351872  L 80.39823008849558 3.021877848678216  C 81.54867256637168 2.8243694925554443  82.49262536873157 2.8737465815861407  83.23008849557522 3.1700091157702843  C 83.9675516224189 3.4662716499544204  84.42477876106196 3.7921604375569764  84.60176991150442 4.147675478577937  Z " fill-rule="nonzero" fill="#ffffff" stroke="none" transform="matrix(1 0 0 1 768 340 )" />
  </g>
</svg>