<?xml version="1.0" encoding="utf-8"?>
<svg version="1.1" xmlns:xlink="http://www.w3.org/1999/xlink" width="51px" height="80px" xmlns="http://www.w3.org/2000/svg">
  <g transform="matrix(1 0 0 1 -322 -310 )">
    <path d="M 50.123711340206185 4.80961923847695  C 50.70790378006873 5.344021376085495  51 5.958583834335327  51 6.653306613226455  C 51 7.3480293921175655  50.70790378006873 7.962591850367398  50.123711340206185 8.496993987975952  L 15.68556701030928 40  L 50.123711340206185 71.50300601202404  C 50.70790378006873 72.0374081496326  51 72.65197060788242  51 73.34669338677355  C 51 74.04141616566466  50.70790378006873 74.65597862391449  50.123711340206185 75.19038076152304  L 45.74226804123712 79.19839679358718  C 45.15807560137458 79.73279893119573  44.48625429553265 80  43.72680412371134 80  C 42.96735395189004 80  42.295532646048116 79.73279893119573  41.71134020618557 79.19839679358718  L 0.8762886597938145 41.84368737474949  C 0.29209621993127166 41.30928523714094  0 40.69472277889111  0 40  C 0 39.30527722110888  0.29209621993127166 38.690714762859045  0.8762886597938145 38.15631262525051  L 41.71134020618557 0.8016032064128265  C 42.295532646048116 0.2672010688042725  42.96735395189004 0  43.72680412371134 0  C 44.48625429553265 0  45.15807560137458 0.2672010688042725  45.74226804123712 0.8016032064128265  L 50.123711340206185 4.80961923847695  Z " fill-rule="nonzero" fill="#000000" stroke="none" transform="matrix(1 0 0 1 322 310 )" />
  </g>
</svg>