<?xml version="1.0" encoding="utf-8"?>
<svg version="1.1" xmlns:xlink="http://www.w3.org/1999/xlink" width="61px" height="80px" xmlns="http://www.w3.org/2000/svg">
  <g transform="matrix(1 0 0 1 -1117 -310 )">
    <path d="M 59.95189003436426 38.15631262525051  C 60.65063001145476 38.690714762859045  61 39.30527722110888  61 40  C 61 40.69472277889111  60.65063001145476 41.30928523714094  59.95189003436426 41.84368737474949  L 11.109965635738831 79.19839679358718  C 10.41122565864834 79.73279893119573  9.607674684994272 80  8.699312714776632 80  C 7.790950744558993 80  6.9873997709049265 79.73279893119573  6.288659793814433 79.19839679358718  L 1.0481099656357389 75.19038076152304  C 0.34936998854524653 74.65597862391449  0 74.04141616566466  0 73.34669338677355  C 0 72.65197060788242  0.34936998854524653 72.0374081496326  1.0481099656357389 71.50300601202404  L 42.238831615120276 40  L 1.0481099656357389 8.496993987975952  C 0.34936998854524653 7.962591850367398  0 7.3480293921175655  0 6.653306613226455  C 0 5.958583834335327  0.34936998854524653 5.344021376085495  1.0481099656357389 4.80961923847695  L 6.288659793814433 0.8016032064128265  C 6.9873997709049265 0.2672010688042725  7.790950744558993 0  8.699312714776632 0  C 9.607674684994272 0  10.41122565864834 0.2672010688042725  11.109965635738831 0.8016032064128265  L 59.95189003436426 38.15631262525051  Z " fill-rule="nonzero" fill="#000000" stroke="none" transform="matrix(1 0 0 1 1117 310 )" />
  </g>
</svg>